<?xml version="1.0" encoding="utf-8"?>
<!-- Generator: Adobe Illustrator 16.0.0, SVG Export Plug-In . SVG Version: 6.00 Build 0)  -->
<!DOCTYPE svg PUBLIC "-//W3C//DTD SVG 1.1//EN" "http://www.w3.org/Graphics/SVG/1.1/DTD/svg11.dtd">
<svg version="1.1" id="Capa_1" xmlns="http://www.w3.org/2000/svg" xmlns:xlink="http://www.w3.org/1999/xlink" x="0px" y="0px"
	 width="100px" height="100px" viewBox="0 0 100 100" enable-background="new 0 0 100 100" xml:space="preserve">
<path fill="#F7F7F8" d="M100,8.054c0,4.448-3.605,8.054-8.054,8.054H8.054C3.606,16.107,0,12.501,0,8.054l0,0
	C0,3.606,3.606,0,8.054,0h83.893C96.395,0,100,3.606,100,8.054L100,8.054z"/>
<path fill="#F7F7F8" d="M100,91.947c0,4.447-3.605,8.053-8.054,8.053H8.054C3.606,100,0,96.395,0,91.947l0,0
	c0-4.448,3.606-8.055,8.054-8.055h83.893C96.395,83.893,100,87.499,100,91.947L100,91.947z"/>
<path fill="#F7F7F8" d="M100,50.001c0,4.447-3.605,8.053-8.054,8.053H8.054C3.606,58.054,0,54.448,0,50.001l0,0
	c0-4.448,3.606-8.055,8.054-8.055h83.893C96.395,41.946,100,45.553,100,50.001L100,50.001z"/>
</svg>
